<svg width="24" height="24" viewBox="0 0 24 24" fill="none" xmlns="http://www.w3.org/2000/svg">
<path d="M16.7501 3.56V2C16.7501 1.59 16.4101 1.25 16.0001 1.25C15.5901 1.25 15.2501 1.59 15.2501 2V3.5H8.75006V2C8.75006 1.59 8.41006 1.25 8.00006 1.25C7.59006 1.25 7.25006 1.59 7.25006 2V3.56C4.55006 3.81 3.24006 5.42 3.04006 7.81C3.02006 8.1 3.26006 8.34 3.54006 8.34H20.4601C20.7501 8.34 20.9901 8.09 20.9601 7.81C20.7601 5.42 19.4501 3.81 16.7501 3.56Z" fill="#A0AAB8"/>
<path d="M20 9.83997H3.99995C3.44995 9.83997 2.99995 10.29 2.99995 10.84V17C2.99995 20 4.49995 22 7.99995 22H16C19.5 22 21 20 21 17V10.84C21 10.29 20.55 9.83997 20 9.83997ZM9.20995 18.21C9.15995 18.25 9.10995 18.3 9.05995 18.33C8.99995 18.37 8.93995 18.4 8.87995 18.42C8.81995 18.45 8.75995 18.47 8.69995 18.48C8.62995 18.49 8.56995 18.5 8.49995 18.5C8.36995 18.5 8.23995 18.47 8.11995 18.42C7.98995 18.37 7.88995 18.3 7.78995 18.21C7.60995 18.02 7.49995 17.76 7.49995 17.5C7.49995 17.24 7.60995 16.98 7.78995 16.79C7.88995 16.7 7.98995 16.63 8.11995 16.58C8.29995 16.5 8.49995 16.48 8.69995 16.52C8.75995 16.53 8.81995 16.55 8.87995 16.58C8.93995 16.6 8.99995 16.63 9.05995 16.67C9.10995 16.71 9.15995 16.75 9.20995 16.79C9.38995 16.98 9.49995 17.24 9.49995 17.5C9.49995 17.76 9.38995 18.02 9.20995 18.21ZM9.20995 14.71C9.01995 14.89 8.75995 15 8.49995 15C8.23995 15 7.97995 14.89 7.78995 14.71C7.60995 14.52 7.49995 14.26 7.49995 14C7.49995 13.74 7.60995 13.48 7.78995 13.29C8.06995 13.01 8.50995 12.92 8.87995 13.08C9.00995 13.13 9.11995 13.2 9.20995 13.29C9.38995 13.48 9.49995 13.74 9.49995 14C9.49995 14.26 9.38995 14.52 9.20995 14.71ZM12.71 18.21C12.52 18.39 12.26 18.5 12 18.5C11.74 18.5 11.48 18.39 11.29 18.21C11.11 18.02 11 17.76 11 17.5C11 17.24 11.11 16.98 11.29 16.79C11.66 16.42 12.34 16.42 12.71 16.79C12.89 16.98 13 17.24 13 17.5C13 17.76 12.89 18.02 12.71 18.21ZM12.71 14.71C12.66 14.75 12.61 14.79 12.56 14.83C12.5 14.87 12.44 14.9 12.38 14.92C12.32 14.95 12.26 14.97 12.2 14.98C12.13 14.99 12.07 15 12 15C11.74 15 11.48 14.89 11.29 14.71C11.11 14.52 11 14.26 11 14C11 13.74 11.11 13.48 11.29 13.29C11.38 13.2 11.49 13.13 11.62 13.08C11.99 12.92 12.43 13.01 12.71 13.29C12.89 13.48 13 13.74 13 14C13 14.26 12.89 14.52 12.71 14.71ZM16.21 18.21C16.02 18.39 15.76 18.5 15.5 18.5C15.24 18.5 14.98 18.39 14.79 18.21C14.61 18.02 14.5 17.76 14.5 17.5C14.5 17.24 14.61 16.98 14.79 16.79C15.16 16.42 15.84 16.42 16.21 16.79C16.39 16.98 16.5 17.24 16.5 17.5C16.5 17.76 16.39 18.02 16.21 18.21ZM16.21 14.71C16.16 14.75 16.11 14.79 16.06 14.83C16 14.87 15.94 14.9 15.88 14.92C15.82 14.95 15.76 14.97 15.7 14.98C15.63 14.99 15.56 15 15.5 15C15.24 15 14.98 14.89 14.79 14.71C14.61 14.52 14.5 14.26 14.5 14C14.5 13.74 14.61 13.48 14.79 13.29C14.89 13.2 14.99 13.13 15.12 13.08C15.3 13 15.5 12.98 15.7 13.02C15.76 13.03 15.82 13.05 15.88 13.08C15.94 13.1 16 13.13 16.06 13.17C16.11 13.21 16.16 13.25 16.21 13.29C16.39 13.48 16.5 13.74 16.5 14C16.5 14.26 16.39 14.52 16.21 14.71Z" fill="#A0AAB8"/>
</svg>
