<svg width="19" height="23" viewBox="0 0 19 23" fill="none" xmlns="http://www.w3.org/2000/svg">
<path fill-rule="evenodd" clip-rule="evenodd" d="M9.364 1.85022e-08C9.06574 -3.97528e-05 8.77095 0.0640385 8.49962 0.187892C8.22829 0.311746 7.98676 0.492481 7.79139 0.717848C7.59601 0.943216 7.45137 1.20795 7.36726 1.49411C7.28316 1.78026 7.26155 2.08116 7.3039 2.3764C5.79589 2.82163 4.47237 3.74274 3.531 5.00216C2.58962 6.26158 2.0809 7.79173 2.08082 9.36409V17.6877H1.04036C0.764417 17.6877 0.499774 17.7973 0.304651 17.9925C0.109527 18.1876 -9.15527e-05 18.4522 -9.15527e-05 18.7282C-9.15527e-05 19.0041 0.109527 19.2688 0.304651 19.4639C0.499774 19.659 0.764417 19.7686 1.04036 19.7686H17.6876C17.9636 19.7686 18.2282 19.659 18.4234 19.4639C18.6185 19.2688 18.7281 19.0041 18.7281 18.7282C18.7281 18.4522 18.6185 18.1876 18.4234 17.9925C18.2282 17.7973 17.9636 17.6877 17.6876 17.6877H16.6472V9.36409C16.6471 7.79173 16.1384 6.26158 15.197 5.00216C14.2556 3.74274 12.9321 2.82163 11.4241 2.3764C11.4665 2.08116 11.4448 1.78026 11.3607 1.49411C11.2766 1.20795 11.132 0.943216 10.9366 0.717848C10.7412 0.492481 10.4997 0.311746 10.2284 0.187892C9.95705 0.0640385 9.66226 -3.97528e-05 9.364 1.85022e-08ZM11.4449 21.8495C11.4449 22.1255 11.3353 22.3901 11.1402 22.5853C10.945 22.7804 10.6804 22.89 10.4045 22.89H8.32355C8.0476 22.89 7.78296 22.7804 7.58783 22.5853C7.39271 22.3901 7.28309 22.1255 7.28309 21.8495C7.28309 21.5736 7.39271 21.309 7.58783 21.1138C7.78296 20.9187 8.0476 20.8091 8.32355 20.8091H10.4045C10.6804 20.8091 10.945 20.9187 11.1402 21.1138C11.3353 21.309 11.4449 21.5736 11.4449 21.8495Z" fill="#A0AAB8"/>
</svg>
